<?xml version="1.0" standalone="no"?>
<!DOCTYPE svg PUBLIC "-//W3C//DTD SVG 20010904//EN"
 "http://www.w3.org/TR/2001/REC-SVG-20010904/DTD/svg10.dtd">
<svg version="1.0" xmlns="http://www.w3.org/2000/svg"
 width="160.000000pt" height="160.000000pt" viewBox="0 0 160.000000 160.000000"
 preserveAspectRatio="xMidYMid meet">
<metadata>
Created by potrace 1.14, written by Peter Selinger 2001-2017
</metadata>
<g transform="translate(0.000000,160.000000) scale(0.100000,-0.100000)"
fill="#000000" stroke="none">
<path d="M657 1575 c-297 -56 -540 -282 -619 -574 -27 -100 -29 -285 -5 -386
39 -157 145 -324 270 -425 145 -118 300 -172 492 -173 146 -1 225 17 350 78
205 100 358 284 417 502 27 102 30 286 5 388 -24 95 -95 236 -157 312 -179
219 -478 330 -753 278z m337 -50 c258 -70 460 -274 532 -537 25 -87 25 -289 0
-376 -72 -265 -278 -470 -537 -537 -103 -27 -132 3 -110 112 6 31 11 112 11
180 0 131 10 172 49 193 11 5 80 10 153 10 126 0 136 2 193 29 35 16 78 48
103 75 52 57 48 75 -6 24 -78 -75 -151 -94 -278 -73 -49 8 -105 15 -124 15
l-35 0 50 48 c28 26 68 68 89 95 21 26 47 47 57 47 42 0 126 42 164 81 l40 41
-47 -35 c-41 -30 -142 -66 -155 -54 -2 2 6 24 17 49 26 59 50 154 50 197 0 47
-9 34 -26 -38 -28 -122 -119 -259 -223 -335 -65 -48 -107 -61 -137 -41 -47 31
-114 187 -114 266 0 23 5 28 37 34 83 15 159 71 203 149 38 65 39 84 2 25 -52
-81 -127 -133 -202 -141 -34 -3 -35 -2 -32 32 3 31 35 161 49 197 3 7 0 13 -5
13 -14 0 -67 -140 -82 -217 -12 -62 -9 -194 6 -242 7 -22 2 -21 -83 23 -49 25
-113 68 -143 94 l-53 48 36 47 c20 26 41 64 47 85 15 55 11 74 -5 22 -8 -25
-31 -65 -51 -88 l-37 -43 -19 28 c-10 15 -28 59 -40 98 -24 78 -37 73 -18 -8
14 -56 51 -137 81 -176 27 -33 24 -41 -14 -41 -50 0 -123 25 -165 56 l-37 27
29 -31 c42 -45 110 -74 183 -78 54 -2 69 -8 115 -42 29 -22 64 -45 77 -52 23
-12 18 -14 -75 -46 -109 -37 -175 -42 -231 -19 -50 21 -53 11 -4 -14 65 -34
116 -36 224 -11 61 14 113 20 138 17 84 -11 128 -87 136 -236 11 -198 -59
-339 -178 -361 -60 -11 -121 7 -201 59 -298 196 -420 550 -303 884 85 247 314
440 576 486 73 13 250 5 323 -14z"/>
</g>
</svg>
